#!OML:ASF E:\Style6\Style6.ASF
:FULLY-SPECIFIED
:DEGREES
2490
root 0.530676 18.3023 0.143594 20.1397 0.376436 -1.2982
lowerback 3.61431 -1.72504 4.50194
upperback -6.94637 -1.75468 2.5356
thorax -9.45041 -1.07703 0.385066
lowerneck -9.91607 0.329101 2.41808
upperneck 4.88024 0.566762 -6.02618
head 3.40701 0.0727152 -2.41221
rclavicle 1.08338e-014 -1.11319e-014
rhumerus -19.4554 5.81032 -90.6239
rradius 23.0349
rwrist 44.9848
rhand -6.52412 4.14084
rfingers 7.12502
rthumb 19.3285 -24.9186
lclavicle 1.08338e-014 -1.11319e-014
lhumerus -23.9124 -44.0751 102.835
lradius 30.4036
lwrist -7.91494
lhand -4.12249 23.8334
lfingers 7.12502
lthumb 21.6363 52.6445
rfemur -23.3294 13.4284 14.5915
rtibia 6.65018
rfoot -5.37274 -26.3512
rtoes 12.6005
lfemur -27.4287 -25.6243 -8.75864
ltibia 16.4918
lfoot -7.2436 31.9698
ltoes -0.981178
2491
root 0.528236 18.2993 0.136272 20.2538 0.498145 -1.35574
lowerback 3.56919 -1.7371 4.57497
upperback -6.98627 -1.76485 2.55162
thorax -9.47089 -1.08724 0.362711
lowerneck -9.92525 0.326213 2.43461
upperneck 4.85643 0.557304 -5.99553
head 3.39977 0.0698135 -2.405
rclavicle 1.39149e-014 -2.06736e-014
rhumerus -19.458 5.7614 -90.6139
rradius 23.0389
rwrist 44.9912
rhand -6.52828 4.17676
rfingers 7.12502
rthumb 19.3245 -24.8831
lclavicle 1.39149e-014 -2.06736e-014
lhumerus -23.886 -44.1214 102.805
lradius 30.4349
lwrist -7.96645
lhand -4.10358 23.8185
lfingers 7.12502
lthumb 21.6545 52.6276
rfemur -23.5073 13.3264 14.6797
rtibia 6.72075
rfoot -5.45937 -26.3432
rtoes 12.8461
lfemur -27.6489 -25.5972 -8.58449
ltibia 16.516
lfoot -7.14268 31.8866
ltoes -0.917442
2492
root 0.527707 18.2969 0.132495 20.3266 0.58129 -1.45438
lowerback 3.52574 -1.75501 4.69692
upperback -7.00239 -1.77864 2.58268
thorax -9.46791 -1.10163 0.328802
lowerneck -9.94387 0.34295 2.46343
upperneck 4.86128 0.577498 -6.01589
head 3.40672 0.0792458 -2.41647
rclavicle 1.98785e-016 -2.94201e-014
rhumerus -19.4492 5.81073 -90.6293
rradius 23.0231
rwrist 45.0068
rhand -6.574 4.22131
rfingers 7.12502
rthumb 19.2805 -24.8429
lclavicle 1.98785e-016 -2.94201e-014
lhumerus -23.8081 -44.0649 102.736
lradius 30.4407
lwrist -8.04845
lhand -4.15724 23.7728
lfingers 7.12502
lthumb 21.603 52.5878
rfemur -23.6361 13.2762 14.797
rtibia 6.8104
rfoot -5.77544 -26.2741
rtoes 13.5693
lfemur -27.7995 -25.5359 -8.42358
ltibia 16.5696
lfoot -7.16254 31.7893
ltoes -0.722956
2493
root 0.528826 18.2952 0.130337 20.3728 0.615066 -1.43017
lowerback 3.50588 -1.7761 4.71297
upperback -7.01472 -1.80723 2.57601
thorax -9.47168 -1.11728 0.316021
lowerneck -9.97175 0.352424 2.46443
upperneck 4.87139 0.590248 -6.01592
head 3.41632 0.0850624 -2.41641
rclavicle -1.02374e-014 1.59028e-015
rhumerus -19.431 5.88421 -90.66
rradius 23.0004
rwrist 44.9987
rhand -6.63687 4.27396
rfingers 7.12502
rthumb 19.22 -24.7963
lclavicle -1.02374e-014 1.59028e-015
lhumerus -23.7749 -44.08 102.706
lradius 30.4824
lwrist -8.02505
lhand -4.25551 23.7866
lfingers 7.12502
lthumb 21.5086 52.6124
rfemur -23.729 13.2206 14.7649
rtibia 6.88445
rfoot -5.86593 -26.2513
rtoes 13.7036
lfemur -27.898 -25.5073 -8.42884
ltibia 16.6249
lfoot -7.07993 31.7331
ltoes -0.781711
2494
root 0.528008 18.2941 0.128432 20.3945 0.642691 -1.36335
lowerback 3.5071 -1.78833 4.63573
upperback -7.02509 -1.82993 2.57226
thorax -9.48126 -1.1232 0.358051
lowerneck -9.98331 0.362212 2.45799
upperneck 4.84484 0.602835 -6.01514
head 3.40986 0.0913079 -2.41386
rclavicle 1.2921e-014 -8.74653e-015
rhumerus -19.4084 5.83915 -90.6461
rradius 22.9521
rwrist 45.0703
rhand -6.65084 4.34435
rfingers 7.12502
rthumb 19.2066 -24.7272
lclavicle 1.2921e-014 -8.74653e-015
lhumerus -23.7679 -44.0916 102.719
lradius 30.5257
lwrist -8.06193
lhand -4.24056 23.7954
lfingers 7.12502
lthumb 21.5229 52.6195
rfemur -23.797 13.1619 14.7041
rtibia 6.96462
rfoot -5.91608 -26.2321
rtoes 13.9269
lfemur -27.9558 -25.5299 -8.47319
ltibia 16.6544
lfoot -7.06444 31.7144
ltoes -0.754181
2495
root 0.527884 18.2946 0.12794 20.3761 0.670906 -1.34558
lowerback 3.54741 -1.7861 4.61123
upperback -7.03046 -1.82542 2.57807
thorax -9.50982 -1.11922 0.379036
lowerneck -10.0154 0.359581 2.45266
upperneck 4.84538 0.600142 -6.02067
head 3.41619 0.0891487 -2.41532
rclavicle -2.69353e-014 3.57812e-014
rhumerus -19.4507 5.88611 -90.6306
rradius 22.9795
rwrist 45.0714
rhand -6.64567 4.30146
rfingers 7.12502
rthumb 19.2116 -24.7696
lclavicle -2.69353e-014 3.57812e-014
lhumerus -23.7988 -44.1715 102.785
lradius 30.5471
lwrist -8.0262
lhand -4.25179 23.7527
lfingers 7.12502
lthumb 21.5122 52.5781
rfemur -23.8822 13.1286 14.7087
rtibia 7.17079
rfoot -5.91339 -26.215
rtoes 13.8493
lfemur -27.9269 -25.6122 -8.47432
ltibia 16.6198
lfoot -7.00854 31.7921
ltoes -0.896839
2496
root 0.527295 18.2952 0.127598 20.3871 0.654845 -1.35377
lowerback 3.55396 -1.77206 4.59704
upperback -7.03432 -1.80624 2.58759
thorax -9.51645 -1.1085 0.395084
lowerneck -10.0732 0.364568 2.43454
upperneck 4.87882 0.609778 -6.01476
head 3.43931 0.0925788 -2.4106
rclavicle 1.38155e-014 8.74653e-015
rhumerus -19.5014 5.9174 -90.6095
rradius 23.0546
rwrist 45.0801
rhand -6.60143 4.28224
rfingers 7.12502
rthumb 19.2541 -24.7846
lclavicle 1.38155e-014 8.74653e-015
lhumerus -23.7794 -44.2135 102.79
lradius 30.5746
lwrist -7.99025
lhand -4.22259 23.7288
lfingers 7.12502
lthumb 21.5402 52.551
rfemur -23.9989 13.1415 14.7114
rtibia 7.35458
rfoot -5.95241 -26.1959
rtoes 13.6913
lfemur -27.9193 -25.6739 -8.43464
ltibia 16.5688
lfoot -6.98818 31.8748
ltoes -1.0811
